<svg class="icon" style="width: 1em;height: 1em;vertical-align: middle;fill: currentColor;overflow: hidden;" viewBox="0 0 1024 1024" version="1.1" xmlns="http://www.w3.org/2000/svg" p-id="5392"><path d="M853.333 533.333a32 32 0 0 1 64 0V800c0 64.8-52.533 117.333-117.333 117.333H224c-64.8 0-117.333-52.533-117.333-117.333V256c0-64.8 52.533-117.333 117.333-117.333h277.333a32 32 0 0 1 0 64H224A53.333 53.333 0 0 0 170.667 256v544A53.333 53.333 0 0 0 224 853.333h576A53.333 53.333 0 0 0 853.333 800V533.333zM811.275 256l-89.792-95.403a32 32 0 0 1 46.613-43.861L908.64 266.069C927.861 286.485 913.376 320 885.333 320H724.704C643.029 320 576 391.21 576 480v192a32 32 0 1 1-64 0V480c0-123.296 94.784-224 212.704-224h86.57z" p-id="5393"></path></svg>