<svg class="icon" style="width: 1em;height: 1em;vertical-align: middle;fill: currentColor;overflow: hidden;" viewBox="0 0 1024 1024" version="1.1" xmlns="http://www.w3.org/2000/svg" p-id="21658"><path d="M52.288 604.032c20.192 12.032 27.04 37.568 15.552 58.112A106.272 106.272 0 0 0 68.576 768a106.304 106.304 0 0 0 91.328 53.568 42.88 42.88 0 0 1 42.528 42.56 107.712 107.712 0 0 0 107.232 105.76c18.08 0 36.16-4.768 52.16-13.76a43.808 43.808 0 0 1 58.144 15.584C439.488 1004.48 473.888 1024 512 1024s72.512-19.52 92.032-52.288a43.968 43.968 0 0 1 58.112-15.552c16.064 8.96 34.112 13.728 52.16 13.728a107.744 107.744 0 0 0 107.264-105.792 42.88 42.88 0 0 1 42.56-42.528A106.304 106.304 0 0 0 955.392 768a106.272 106.272 0 0 0 0.736-105.856 42.944 42.944 0 0 1 15.552-58.112C1004.48 584.512 1024 550.112 1024 512s-19.52-72.512-52.288-92.032a42.944 42.944 0 0 1-15.552-58.112A106.272 106.272 0 0 0 955.424 256a106.304 106.304 0 0 0-91.328-53.568 42.88 42.88 0 0 1-42.528-42.56 107.712 107.712 0 0 0-107.232-105.76c-18.08 0-36.128 4.768-52.16 13.76a43.84 43.84 0 0 1-58.144-15.584C584.512 19.52 550.112 0 512 0s-72.512 19.52-92.032 52.288a43.84 43.84 0 0 1-58.112 15.552 107.328 107.328 0 0 0-52.16-13.728 107.744 107.744 0 0 0-107.264 105.792 42.88 42.88 0 0 1-42.56 42.528A106.304 106.304 0 0 0 68.608 256a106.272 106.272 0 0 0-0.736 105.856c11.488 20.544 4.64 46.08-15.552 58.112C19.52 439.488 0 473.888 0 512s19.52 72.512 52.288 92.032z m32.768-129.088a106.624 106.624 0 0 0 38.656-144.32A42.24 42.24 0 0 1 124.032 288a42.24 42.24 0 0 1 36.736-21.568 106.56 106.56 0 0 0 105.664-105.632c0.352-26.368 22.72-42.688 43.232-42.688 7.264 0 14.336 1.92 20.96 5.6a107.36 107.36 0 0 0 52.192 13.632 107.744 107.744 0 0 0 92.128-52.288c15.968-26.784 58.144-26.784 74.112 0a107.744 107.744 0 0 0 92.128 52.288c18.176 0 36.224-4.704 52.192-13.632 6.656-3.712 13.696-5.6 20.96-5.6 20.48 0 42.88 16.32 43.232 42.656a106.56 106.56 0 0 0 105.632 105.664 42.24 42.24 0 0 1 36.8 21.568c7.776 13.504 7.872 29.024 0.288 42.624a106.624 106.624 0 0 0 38.656 144.32c13.376 8 21.056 21.472 21.056 37.056s-7.68 29.088-21.056 37.056a106.624 106.624 0 0 0-38.656 144.32c7.584 13.6 7.488 29.12-0.32 42.624a42.24 42.24 0 0 1-36.736 21.568 106.56 106.56 0 0 0-105.664 105.632c-0.352 26.368-22.72 42.688-43.232 42.688-7.264 0-14.336-1.92-20.96-5.6a107.36 107.36 0 0 0-52.192-13.632 107.744 107.744 0 0 0-92.128 52.288c-15.968 26.784-58.144 26.784-74.112 0a107.744 107.744 0 0 0-92.128-52.288c-18.176 0-36.224 4.704-52.192 13.632a42.56 42.56 0 0 1-20.96 5.6c-20.48 0-42.88-16.32-43.232-42.656a106.56 106.56 0 0 0-105.632-105.664A42.24 42.24 0 0 1 124 736a42.24 42.24 0 0 1-0.288-42.624 106.624 106.624 0 0 0-38.656-144.32C71.68 541.056 64 527.584 64 512s7.68-29.088 21.056-37.056z" fill="#cc3333" p-id="21659"></path></svg>